<svg xmlns="http://www.w3.org/2000/svg" width="599.995" height="58.928" viewBox="0 0 784 77">
  <defs>
    <style>
      .cls-1 {
        fill: #fff;
        fill-rule: evenodd;
      }
    </style>
  </defs>
  <path id="New_or_Review_design" data-name="New or Review design" class="cls-1" d="M6.049,58.635H16.994V26.592L41.4,58.635h9.433V8.23H39.891V39.265L16.273,8.23H6.049v50.4ZM80.066,59.5c6.985,0,12.169-2.736,15.769-7.2L89.57,46.754c-3.024,2.808-5.688,3.96-9.361,3.96-4.9,0-8.353-2.592-9.433-7.561H97.635c0.072-1.008.144-2.016,0.144-2.88,0-10.945-5.9-20.954-18.794-20.954-11.233,0-19.082,9.073-19.082,20.09v0.144C59.9,51.362,68.473,59.5,80.066,59.5ZM70.633,36.313C71.5,31.344,74.449,28.1,78.985,28.1c4.608,0,7.489,3.312,8.137,8.209H70.633Zm42.192,22.61h9.792l7.561-23.69,7.417,23.69h9.865l12.025-38.883H148.612l-6.337,23.474L134.93,19.9H125.5l-7.273,23.546-6.193-23.4H100.943ZM206.64,59.5c12.025,0,20.954-9,20.954-20.09V39.265c0-11.089-8.857-19.946-20.81-19.946-12.025,0-20.954,9-20.954,20.09v0.144C185.83,50.642,194.687,59.5,206.64,59.5Zm0.144-9.433c-6.049,0-10.153-4.969-10.153-10.657V39.265c0-5.688,3.744-10.513,10.009-10.513,6.048,0,10.153,4.968,10.153,10.657v0.144C216.793,45.242,213.049,50.066,206.784,50.066Zm28.725,8.569h10.945V44.378c0-9.217,4.465-13.609,11.737-13.609h0.576V19.319c-6.48-.288-10.081,3.168-12.313,8.5V20.039H235.509v38.6Zm59.624-44.719-8.789,42.258h-5.273l-0.492,2.461h22.957l0.527-2.461h-6.574l4.465-21.516h2.32q4.885,0,6.152,2.566t1.3,7.945q0.035,5.379,1.2,7.91a9.531,9.531,0,0,0,4.061,4.219,14.486,14.486,0,0,0,7.365,1.688,16.208,16.208,0,0,0,8.227-2l-1.09-2.18a7.863,7.863,0,0,1-2.883.738,4.2,4.2,0,0,1-2.672-1.02q-1.265-1.019-1.494-6.592t-2.584-8.789q-2.355-3.217-8.156-5.361V33.639q8.789-.773,12.937-4.025a9.7,9.7,0,0,0,4.149-7.857,10.013,10.013,0,0,0-3.094-7.031q-3.094-3.234-11.988-3.234H289.438l-0.492,2.426h6.187Zm15.539,0q4.675,0,6.188,1.389a4.926,4.926,0,0,1,1.512,3.814,24.018,24.018,0,0,1-1.2,7.031q-1.2,3.868-3.041,4.957t-6.627,1.09h-4.957l3.868-18.281h4.253Zm37.793,43Q344,56.912,344,53.08a31.709,31.709,0,0,1,1.16-6.539q19.3,0.738,19.3-9.281a6.248,6.248,0,0,0-2.391-5.168q-2.391-1.9-7.031-1.9-9.423,0-15.153,5.906t-5.73,12.656a10.421,10.421,0,0,0,3.076,7.523q3.076,3.164,9.3,3.164,11.355,0,17.648-9l-1.828-1.23q-6.153,7.7-13.887,7.7h0Zm0.493-21.8a5.354,5.354,0,0,1,4.711-2.988,3.726,3.726,0,0,1,3,1.178,4.273,4.273,0,0,1,1,2.865,8.892,8.892,0,0,1-2.513,5.836q-2.514,2.883-9.44,2.6A33.575,33.575,0,0,1,348.958,35.115Zm28.195-1.336a0.933,0.933,0,0,1,.914,1.16,14.585,14.585,0,0,1-.492,2.6L374.9,48.334a22.5,22.5,0,0,0-.773,4.746,5.856,5.856,0,0,0,2.056,4.5q2.057,1.863,6.135,1.863,8.4,0,14.5-6.891a22.787,22.787,0,0,0,6.1-15.5,7.752,7.752,0,0,0-1.494-4.992,4.782,4.782,0,0,0-3.92-1.863,3.8,3.8,0,0,0-2.935,1.16,3.994,3.994,0,0,0-1.072,2.813,4.661,4.661,0,0,0,.58,2.215,2.739,2.739,0,0,0,1.494,1.406,11.223,11.223,0,0,0,3.234.316q1.371,0,1.371,1.9,0,5.063-4.728,10.547t-9.369,5.484a2.771,2.771,0,0,1-2.127-.738,2.332,2.332,0,0,1-.686-1.617,12.463,12.463,0,0,1,.281-2.039,10.136,10.136,0,0,1,.422-1.723l2.18-8.719a30.687,30.687,0,0,0,1.055-6.469A4.106,4.106,0,0,0,385.59,31.6a6.523,6.523,0,0,0-4.429-1.406q-7.77,0-12.305,9.809l1.793,0.914q3.938-7.136,6.5-7.137h0Zm41.309-11.566a4.937,4.937,0,0,0,3.621,1.512,4.784,4.784,0,0,0,3.55-1.512,5,5,0,0,0,1.477-3.621,5.072,5.072,0,0,0-5.027-5.027,5,5,0,0,0-3.621,1.477,4.785,4.785,0,0,0-1.512,3.551A4.939,4.939,0,0,0,418.462,22.213Zm5.273,8.121-2.355.246q-2.673.246-4.993,0.246H411.5l-0.528,2.18h4.395l-4.746,18.141a15.313,15.313,0,0,0-.563,3.586q0,4.711,6.68,4.711,7.628,0,11.18-9.316l-1.9-1.371q-2.707,7-5.66,7a0.871,0.871,0,0,1-.949-1.02,5.85,5.85,0,0,1,.158-1.055c0.1-.492.17-0.785,0.193-0.879l5.7-22.465h-1.723Zm22.324,26.578q-4.466,0-4.465-3.832a31.731,31.731,0,0,1,1.161-6.539q19.3,0.738,19.3-9.281a6.248,6.248,0,0,0-2.39-5.168q-2.391-1.9-7.032-1.9-9.421,0-15.152,5.906t-5.73,12.656a10.421,10.421,0,0,0,3.076,7.523q3.075,3.164,9.3,3.164,11.355,0,17.648-9l-1.828-1.23q-6.153,7.7-13.887,7.7h0Zm0.492-21.8a5.356,5.356,0,0,1,4.711-2.988,3.728,3.728,0,0,1,3.006,1.178,4.273,4.273,0,0,1,1,2.865,8.888,8.888,0,0,1-2.514,5.836q-2.512,2.883-9.439,2.6A33.612,33.612,0,0,1,446.551,35.115ZM489.231,48.6q-4.078,7.084-7.1,7.084-1.582,0-1.583-1.3a20.014,20.014,0,0,1,.528-2.6l3.094-11.848a24.621,24.621,0,0,0,.914-5.062,4.185,4.185,0,0,0-1.688-3.252,6.861,6.861,0,0,0-4.57-1.424q-7.349,0-11.742,9.949l1.933,0.844q3.516-7.277,5.7-7.277a0.872,0.872,0,0,1,.949,1.02,10.093,10.093,0,0,1-.352,2.074l-2.953,11.6a24.842,24.842,0,0,0-.949,5.766,5.035,5.035,0,0,0,1.67,3.6,6.5,6.5,0,0,0,4.8,1.67,11.879,11.879,0,0,0,7.488-2.6q3.339-2.6,7.066-9.668l0.141,0.141a18.315,18.315,0,0,0-.422,4.043,8.592,8.592,0,0,0,2.039,5.607,6.848,6.848,0,0,0,5.59,2.479q7.453,0,12.445-7.98t4.992-15.223a6.966,6.966,0,0,0-1.335-4.219,4.425,4.425,0,0,0-3.8-1.828,4.1,4.1,0,0,0-3.077,1.213,3.71,3.71,0,0,0-1.177,2.619,4.176,4.176,0,0,0,.738,2.32,3,3,0,0,0,1.635,1.371,12.1,12.1,0,0,0,2.9.246q1.23,0,1.231,1.723,0,3.762-3.621,10.02t-7.629,6.258A2.865,2.865,0,0,1,501.008,55a3.217,3.217,0,0,1-.949-2.338,24.468,24.468,0,0,1,.879-5.766q0.035-.035.492-1.934l3.586-14.133h-9.422A61.383,61.383,0,0,1,489.231,48.6Zm69.787,10.757a14.173,14.173,0,0,0,12.025-6.265v5.544h10.945V6.07H571.043V25.08a14.82,14.82,0,0,0-12.025-5.76c-9.144,0-17.569,7.057-17.569,19.946v0.144C541.449,52.3,550.018,59.355,559.018,59.355Zm2.809-9.289c-5.113,0-9.433-4.248-9.433-10.657V39.265c0-6.48,4.32-10.657,9.433-10.657s9.361,4.248,9.361,10.657v0.144C571.188,45.818,566.939,50.066,561.827,50.066ZM610.066,59.5c6.984,0,12.169-2.736,15.769-7.2l-6.264-5.544c-3.025,2.808-5.689,3.96-9.361,3.96-4.9,0-8.353-2.592-9.433-7.561h26.858c0.072-1.008.144-2.016,0.144-2.88,0-10.945-5.9-20.954-18.793-20.954-11.233,0-19.082,9.073-19.082,20.09v0.144C589.9,51.362,598.473,59.5,610.066,59.5Zm-9.433-23.186c0.864-4.969,3.816-8.209,8.353-8.209,4.608,0,7.488,3.312,8.136,8.209H600.633Zm48.816,23.042c8.352,0,14.761-3.888,14.761-12.457V46.754c0-7.057-6.265-9.649-11.665-11.449-4.176-1.44-7.849-2.448-7.849-4.608V30.552c0-1.512,1.368-2.664,4.033-2.664,2.808,0,6.624,1.368,10.441,3.6l4.176-7.561a26.711,26.711,0,0,0-14.4-4.464c-7.777,0-14.114,4.392-14.114,12.241v0.144c0,7.489,6.121,10.009,11.521,11.593,4.249,1.3,7.993,2.088,7.993,4.464V48.05c0,1.728-1.44,2.88-4.608,2.88-3.6,0-7.993-1.584-12.169-4.608l-4.681,7.2A27.038,27.038,0,0,0,649.449,59.355Zm22.822-43.564h11.521V6.07H672.271v9.721Zm0.289,42.844H683.5v-38.6H672.56v38.6ZM711.08,70.3c7.489,0,13.033-1.584,16.633-5.184,3.241-3.24,4.9-8.281,4.9-15.193V20.039H721.665v5.04c-2.952-3.24-6.481-5.76-12.457-5.76-8.857,0-17.138,6.481-17.138,18v0.144c0,11.449,8.137,18,17.138,18,5.832,0,9.361-2.376,12.6-6.264v1.872c0,6.913-3.528,10.513-11.017,10.513a25.186,25.186,0,0,1-13.033-3.528l-3.744,8.209A36.617,36.617,0,0,0,711.08,70.3Zm1.3-23.906c-5.328,0-9.361-3.6-9.361-8.929V37.321c0-5.257,4.033-8.929,9.361-8.929s9.433,3.672,9.433,8.929v0.144C721.809,42.721,717.705,46.394,712.376,46.394ZM742.4,58.635h10.945V37.1c0-5.184,2.664-7.849,6.84-7.849s6.625,2.664,6.625,7.849v21.53h10.945V33.649c0-8.857-4.825-14.329-13.105-14.329-5.545,0-8.785,2.952-11.305,6.193V20.039H742.4v38.6Z"/>
</svg>
