<svg id="Livello_1" data-name="Livello 1" xmlns="http://www.w3.org/2000/svg" viewBox="0 0 386.85 33.11"><defs><style>.cls-1{fill:#fff;stroke:#000;stroke-miterlimit:10;}</style></defs><title>logoBiancoBordi</title><path class="cls-1" d="M2.52,1.18H7.63L19.44,16.69V1.18h5.47v25.2H20.2L8,10.36v16H2.52V1.18Z" transform="translate(-2.02 0.4)"/><path class="cls-1" d="M29.45,16.84V16.76c0-5.51,3.92-10,9.54-10,6.44,0,9.39,5,9.39,10.47,0,0.43,0,.94-0.07,1.44H34.89a4.47,4.47,0,0,0,4.72,3.78,6.32,6.32,0,0,0,4.68-2l3.13,2.77a9.65,9.65,0,0,1-7.88,3.6C33.74,26.81,29.45,22.74,29.45,16.84Zm13.61-1.62c-0.32-2.45-1.76-4.1-4.07-4.1s-3.74,1.62-4.18,4.1h8.24Z" transform="translate(-2.02 0.4)"/><path class="cls-1" d="M50,7.08h5.54l3.1,11.7L62.25,7H67l3.67,11.81L73.8,7.08h5.44l-6,19.44H68.29L64.59,14.68,60.81,26.52h-4.9Z" transform="translate(-2.02 0.4)"/><path class="cls-1" d="M92.41,16.84V16.76a10.45,10.45,0,0,1,20.88-.07v0.07A10.45,10.45,0,0,1,92.41,16.84Zm15.48,0V16.76a5.13,5.13,0,0,0-5.08-5.33,4.94,4.94,0,0,0-5,5.26v0.07a5.13,5.13,0,0,0,5.08,5.33A4.94,4.94,0,0,0,107.89,16.84Z" transform="translate(-2.02 0.4)"/><path class="cls-1" d="M117.25,7.08h5.47V11c1.12-2.66,2.92-4.39,6.16-4.25v5.72h-0.29c-3.64,0-5.87,2.2-5.87,6.8v7.13h-5.47V7.08Z" transform="translate(-2.02 0.4)"/><path class="cls-1" d="M144,4l0.25-1.21h13.13q4.45,0,6,1.62a5,5,0,0,1,1.55,3.52,4.85,4.85,0,0,1-2.07,3.93q-2.07,1.63-6.47,2v0.07a8.6,8.6,0,0,1,4.08,2.68A7.86,7.86,0,0,1,161.72,21q0.11,2.79.75,3.3a2.1,2.1,0,0,0,1.34.51,3.93,3.93,0,0,0,1.44-.37l0.54,1.09a8.1,8.1,0,0,1-4.11,1,7.24,7.24,0,0,1-3.68-.84,4.76,4.76,0,0,1-2-2.11,10.22,10.22,0,0,1-.6-4,9.57,9.57,0,0,0-.65-4q-0.63-1.28-3.08-1.28h-1.16l-2.23,10.76h3.29l-0.26,1.23H139.79L140,25.14h2.64L147.07,4H144Zm8.74,0-1.93,9.14h2.48a7.07,7.07,0,0,0,3.31-.54,4.22,4.22,0,0,0,1.52-2.48,12,12,0,0,0,.6-3.52,2.46,2.46,0,0,0-.76-1.91A4.81,4.81,0,0,0,154.84,4h-2.13Z" transform="translate(-2.02 0.4)"/><path class="cls-1" d="M180.68,21.66l0.91,0.62a10.15,10.15,0,0,1-8.82,4.5,6.21,6.21,0,0,1-4.65-1.58,5.21,5.21,0,0,1-1.54-3.76,9,9,0,0,1,2.87-6.33,10.08,10.08,0,0,1,7.58-3,5.56,5.56,0,0,1,3.52.95,3.12,3.12,0,0,1,1.2,2.58q0,5-9.65,4.64a15.88,15.88,0,0,0-.58,3.27q0,1.92,2.23,1.92Q177.6,25.51,180.68,21.66Zm-8.31-2.3q3.46,0.14,4.72-1.3a4.44,4.44,0,0,0,1.26-2.92,2.14,2.14,0,0,0-.5-1.43,1.86,1.86,0,0,0-1.5-.59A2.68,2.68,0,0,0,174,14.62,16.8,16.8,0,0,0,172.36,19.36Z" transform="translate(-2.02 0.4)"/><path class="cls-1" d="M184.82,17.52l-0.9-.46q2.27-4.9,6.15-4.9a3.26,3.26,0,0,1,2.21.7,2.05,2.05,0,0,1,.81,1.56,15.34,15.34,0,0,1-.53,3.23L191.49,22a5,5,0,0,0-.21.86,6.2,6.2,0,0,0-.14,1,1.17,1.17,0,0,0,.34.81,1.39,1.39,0,0,0,1.06.37q2.32,0,4.68-2.74a8.25,8.25,0,0,0,2.36-5.27q0-.95-0.69-0.95a5.62,5.62,0,0,1-1.62-.16,1.37,1.37,0,0,1-.75-0.7,2.33,2.33,0,0,1-.29-1.11,2,2,0,0,1,.54-1.41,1.9,1.9,0,0,1,1.47-.58,2.39,2.39,0,0,1,2,.93,3.88,3.88,0,0,1,.75,2.5,11.39,11.39,0,0,1-3,7.75,9.38,9.38,0,0,1-7.25,3.45,4.44,4.44,0,0,1-3.07-.93,2.93,2.93,0,0,1-1-2.25,11.26,11.26,0,0,1,.39-2.37l1.34-5.4a7.29,7.29,0,0,0,.25-1.3,0.47,0.47,0,0,0-.46-0.58Q186.79,13.95,184.82,17.52Z" transform="translate(-2.02 0.4)"/><path class="cls-1" d="M212.23,12.22l-2.85,11.23-0.1.44a2.91,2.91,0,0,0-.08.53,0.44,0.44,0,0,0,.47.51q1.48,0,2.83-3.5l0.95,0.69q-1.78,4.66-5.59,4.66-3.34,0-3.34-2.36a7.65,7.65,0,0,1,.28-1.79l2.37-9.07H205l0.26-1.09h2.44q1.16,0,2.5-.12l1.18-.12h0.86ZM208,6.35a2.39,2.39,0,0,1,.76-1.78,2.5,2.5,0,0,1,1.81-.74,2.54,2.54,0,0,1,2.51,2.51,2.5,2.5,0,0,1-.74,1.81,2.39,2.39,0,0,1-1.78.76,2.47,2.47,0,0,1-1.81-.76A2.47,2.47,0,0,1,208,6.35Z" transform="translate(-2.02 0.4)"/><path class="cls-1" d="M229.47,21.66l0.91,0.62a10.15,10.15,0,0,1-8.82,4.5,6.21,6.21,0,0,1-4.65-1.58,5.21,5.21,0,0,1-1.54-3.76,9,9,0,0,1,2.87-6.33,10.08,10.08,0,0,1,7.58-3,5.56,5.56,0,0,1,3.52.95,3.12,3.12,0,0,1,1.2,2.58q0,5-9.65,4.64a15.88,15.88,0,0,0-.58,3.27q0,1.92,2.23,1.92Q226.4,25.51,229.47,21.66Zm-8.31-2.3q3.46,0.14,4.72-1.3a4.44,4.44,0,0,0,1.26-2.92,2.14,2.14,0,0,0-.5-1.43,1.86,1.86,0,0,0-1.5-.59,2.68,2.68,0,0,0-2.36,1.49A16.8,16.8,0,0,0,221.16,19.36Z" transform="translate(-2.02 0.4)"/><path class="cls-1" d="M247.3,12.47H252l-1.79,7.07q-0.23.95-.25,1a12.23,12.23,0,0,0-.44,2.88,1.61,1.61,0,0,0,.47,1.17,1.43,1.43,0,0,0,1,.48q2,0,3.81-3.13a11,11,0,0,0,1.81-5q0-.86-0.62-0.86a6.06,6.06,0,0,1-1.45-.12,1.5,1.5,0,0,1-.82-0.69,2.09,2.09,0,0,1-.37-1.16,1.85,1.85,0,0,1,.59-1.31,2,2,0,0,1,1.54-.61,2.21,2.21,0,0,1,1.9.91,3.48,3.48,0,0,1,.67,2.11,14.43,14.43,0,0,1-2.5,7.61q-2.5,4-6.22,4a3.42,3.42,0,0,1-2.79-1.24,4.3,4.3,0,0,1-1-2.8,9.15,9.15,0,0,1,.21-2l-0.07-.07a15.19,15.19,0,0,1-3.53,4.83,5.94,5.94,0,0,1-3.74,1.3,3.25,3.25,0,0,1-2.4-.83,2.52,2.52,0,0,1-.83-1.8,12.43,12.43,0,0,1,.47-2.88l1.48-5.8a5,5,0,0,0,.18-1,0.44,0.44,0,0,0-.47-0.51q-1.09,0-2.85,3.64l-1-.42q2.2-5,5.87-5a3.43,3.43,0,0,1,2.29.71,2.09,2.09,0,0,1,.84,1.63,12.3,12.3,0,0,1-.46,2.53L240,22.95a10,10,0,0,0-.26,1.3,0.64,0.64,0,0,0,.79.65q1.51,0,3.55-3.54A30.7,30.7,0,0,0,247.3,12.47Z" transform="translate(-2.02 0.4)"/><path class="cls-1" d="M270.22,16.76V16.69c0-6.44,4.21-10,8.78-10a7.41,7.41,0,0,1,6,2.88V0.1h5.47V26.38H285V23.6a7.09,7.09,0,0,1-6,3.13C274.51,26.73,270.22,23.21,270.22,16.76Zm14.87,0V16.69c0-3.2-2.12-5.33-4.68-5.33s-4.72,2.09-4.72,5.33v0.07c0,3.2,2.16,5.33,4.72,5.33S285.09,20,285.09,16.76Z" transform="translate(-2.02 0.4)"/><path class="cls-1" d="M294.45,16.84V16.76c0-5.51,3.92-10,9.54-10,6.44,0,9.39,5,9.39,10.47,0,0.43,0,.94-0.07,1.44H299.89a4.47,4.47,0,0,0,4.71,3.78,6.32,6.32,0,0,0,4.68-2l3.13,2.77a9.65,9.65,0,0,1-7.88,3.6C298.73,26.81,294.45,22.74,294.45,16.84Zm13.61-1.62c-0.32-2.45-1.76-4.1-4.07-4.1s-3.74,1.62-4.18,4.1h8.24Z" transform="translate(-2.02 0.4)"/><path class="cls-1" d="M315.94,23.82l2.34-3.6a10.91,10.91,0,0,0,6.08,2.3c1.58,0,2.3-.58,2.3-1.44V21c0-1.19-1.87-1.58-4-2.23-2.7-.79-5.76-2.05-5.76-5.79V12.91c0-3.92,3.17-6.12,7.05-6.12A13.36,13.36,0,0,1,331.17,9l-2.09,3.78a11.43,11.43,0,0,0-5.22-1.8c-1.33,0-2,.58-2,1.33v0.07c0,1.08,1.84,1.58,3.92,2.3,2.7,0.9,5.83,2.2,5.83,5.72v0.07c0,4.28-3.2,6.23-7.38,6.23A13.52,13.52,0,0,1,315.94,23.82Z" transform="translate(-2.02 0.4)"/><path class="cls-1" d="M335.63,0.1h5.76V5h-5.76V0.1Zm0.14,7h5.47V26.38h-5.47V7.08Z" transform="translate(-2.02 0.4)"/><path class="cls-1" d="M346.51,30.19l1.87-4.1a12.58,12.58,0,0,0,6.51,1.76c3.74,0,5.51-1.8,5.51-5.25V21.66a7.55,7.55,0,0,1-6.3,3.13c-4.5,0-8.57-3.28-8.57-9V15.72c0-5.76,4.14-9,8.57-9a7.81,7.81,0,0,1,6.23,2.88V7.08h5.47V22c0,3.46-.83,6-2.45,7.6-1.8,1.8-4.57,2.59-8.31,2.59A18.31,18.31,0,0,1,346.51,30.19Zm13.89-14.4V15.72a4.7,4.7,0,0,0-9.4,0v0.07a4.41,4.41,0,0,0,4.68,4.46A4.46,4.46,0,0,0,360.4,15.79Z" transform="translate(-2.02 0.4)"/><path class="cls-1" d="M370.7,7.08h5.47V9.82a6.83,6.83,0,0,1,5.65-3.1c4.14,0,6.55,2.74,6.55,7.16V26.38H382.9V15.61c0-2.59-1.22-3.92-3.31-3.92s-3.42,1.33-3.42,3.92V26.38H370.7V7.08Z" transform="translate(-2.02 0.4)"/></svg>