<svg id="Livello_2" data-name="Livello 2" xmlns="http://www.w3.org/2000/svg" viewBox="0 0 768 768"><defs><style>.cls-1,.cls-4{fill:#fff;}.cls-2,.cls-3{fill:#996799;}.cls-3{stroke:#788040;stroke-width:4px;}.cls-4{stroke:#996799;stroke-width:25px;}</style></defs><title>logo</title><rect class="cls-1" width="768" height="768"/><rect class="cls-2" x="90.24" y="88.06" width="587.17" height="588.11"/><path class="cls-3" d="M676.5,713.62l-3.18,18.05H672l3.16-17.92c1.41-8-1.77-13.46-9.81-13.46-7.08,0-13.76,6.06-15.11,13.71l-3.11,17.67h-1.34l5.62-31.89h1.34l-1.54,8.74c1.71-3.89,6.91-9.5,14.5-9.5C674.3,699,678.06,704.82,676.5,713.62ZM628.71,738a18.53,18.53,0,0,1-12.14,4.08A20.17,20.17,0,0,1,603,737.16l1-1.08a18.54,18.54,0,0,0,12.82,4.72c8.48,0,15-4.85,16.67-14.22l1.15-6.51a19.25,19.25,0,0,1-16,9.25c-8.67,0-14.56-6.76-13.1-15.05l0-.13C607,705.84,615.3,699,624,699c6.51,0,11.32,3.83,12.72,9.25l1.5-8.48h1.34l-4.77,27A18.45,18.45,0,0,1,628.71,738Zm7.06-23.79c1.32-7.46-4-13.9-12-13.9s-15.44,6.19-16.78,13.78l0,0.13c-1.34,7.59,3.94,13.84,11.91,13.84s15.52-6.25,16.83-13.71Zm-37.88-23.54,0.64-3.64h2l-0.64,3.64h-2Zm-5.57,41H591l5.62-31.89h1.34Zm-18.1-31.19c-5.8,0-10.22,3-10.89,6.76l0,0.13c-0.74,4.21,3.57,5.8,8.85,7.34,6,1.72,10.86,3.51,9.9,9l0,0.13c-0.88,5-6.4,8.42-13,8.42A17.49,17.49,0,0,1,557,727.53l1-1.08A16.31,16.31,0,0,0,569.29,731c5.74,0,10.6-2.93,11.33-7.08l0-.13c0.87-4.91-4.18-6.32-9.09-7.78-6.18-1.85-10.54-3.51-9.66-8.55l0-.13c0.79-4.46,5.83-8.1,12.53-8.1a17.24,17.24,0,0,1,10.47,3.57l-1,1.15A15.73,15.73,0,0,0,574.22,700.48Zm-21.57,15.63H524.14c-1.36,9.19,4,15.05,11.89,15.05,4.91,0,9.75-2.87,12.94-6.44l0.95,0.77c-3.44,4-8.56,7-14.17,7-8.74,0-14.81-6.44-13-16.71l0-.13C524.43,706.16,532.13,699,541,699c10.08,0,13.11,8.87,11.7,16.84Zm-11.95-15.82c-7.91,0-14.56,6.25-16.35,14.61h27C552.43,707.63,549.13,700.29,540.71,700.29ZM509,731.68l1.74-9.89a18.67,18.67,0,0,1-16.61,10.65c-9.25,0-14.64-7.4-13-16.65l0-.13C482.74,706.42,490.74,699,500,699c7.4,0,12.07,4.59,12.86,10.65l4.33-24.56h1.34l-8.21,46.56H509Zm2.89-16c1.45-8.23-3.41-15.37-12-15.37s-15.8,6.76-17.31,15.31l0,0.13c-1.5,8.48,3.15,15.44,11.89,15.44s16-7.08,17.44-15.37Z"/><path class="cls-1" d="M88.92,676.65h92l-1-138.82L292.63,678.06h92l0.56-305.56H283.4V508L174.2,372.5H89.48Z"/><path class="cls-1" d="M385.14,372.5L590,372.38q57.67,0,77.73,21t20.06,45.59q0,29.86-26.9,50.95T577,516v0.91q37.61,13.91,52.88,34.76t16.75,57q1.48,36.13,9.69,42.74T673.67,658a9.15,9.15,0,0,0,5.15-1.25v21.31c-19.58.16-12,0-32.54,0-19.3,0-35.41-1.37-48-8.66S577,653,572,642s-7.6-28-7.75-51.29-3-40.42-8.43-51.52-18.77-16.64-39.89-16.64h-15L471.94,662.1l0.35,0.39-2.83,15.56H362.3l3.19-16h34.19l57-274H384.58m213,9q-9.8-9-40.12-9H529.84L504.77,506.64h32.14q31,0,43-7.07t19.72-32.14q7.75-25.07,7.75-45.59Q607.34,406.12,597.54,397.12Zm81.29,259.63V652.6C680.4,654.34,680.16,655.79,678.82,656.75Z"/><circle class="cls-4" cx="384.58" cy="612.99" r="70.73"/></svg>